<svg xmlns="http://www.w3.org/2000/svg" xmlns:xlink="http://www.w3.org/1999/xlink" width="500" zoomAndPan="magnify" viewBox="0 0 375 374.999991" height="500" preserveAspectRatio="xMidYMid meet" version="1.0"><defs><g/><clipPath id="1b74506d22"><rect x="0" width="156" y="0" height="265"/></clipPath><clipPath id="e4ff6d0330"><rect x="0" width="101" y="0" height="195"/></clipPath><clipPath id="5e3d0c4a5f"><rect x="0" width="35" y="0" height="51"/></clipPath></defs><rect x="-37.5" width="450" fill="#ffffff" y="-37.499999" height="449.999989" fill-opacity="1"/><rect x="-37.5" width="450" fill="#000000" y="-37.499999" height="449.999989" fill-opacity="1"/><g transform="matrix(1, 0, 0, 1, 40, 55)"><g clip-path="url(#1b74506d22)"><g fill="#ffffff" fill-opacity="1"><g transform="translate(0.848217, 211.540795)"><g><path d="M 136.21875 -34 C 138.71875 -34 140.773438 -33.1875 142.390625 -31.5625 C 144.015625 -29.945312 144.828125 -27.960938 144.828125 -25.609375 L 144.828125 -3.75 C 144.828125 -2.71875 144.457031 -1.832031 143.71875 -1.09375 C 142.988281 -0.363281 142.109375 0 141.078125 0 L 136.21875 0 C 133.863281 0 131.875 -0.84375 130.25 -2.53125 C 128.632812 -4.226562 127.828125 -6.253906 127.828125 -8.609375 L 127.828125 -30.03125 C 127.828125 -32.675781 126.429688 -34 123.640625 -34 L 119.21875 -34 C 116.863281 -34 114.875 -34.84375 113.25 -36.53125 C 111.632812 -38.226562 110.828125 -40.253906 110.828125 -42.609375 L 110.828125 -59.609375 C 110.828125 -57.253906 110.015625 -55.226562 108.390625 -53.53125 C 106.773438 -51.84375 104.71875 -51 102.21875 -51 L 30.03125 -51 C 27.226562 -51 25.828125 -49.675781 25.828125 -47.03125 L 25.828125 -8.609375 C 25.828125 -6.253906 25.015625 -4.226562 23.390625 -2.53125 C 21.773438 -0.84375 19.789062 0 17.4375 0 L 12.578125 0 C 11.554688 0 10.675781 -0.363281 9.9375 -1.09375 C 9.195312 -1.832031 8.828125 -2.71875 8.828125 -3.75 L 8.828125 -42.609375 C 8.828125 -44.960938 9.671875 -46.945312 11.359375 -48.5625 C 13.054688 -50.1875 15.082031 -51 17.4375 -51 L 21.859375 -51 C 23.035156 -51 23.988281 -51.441406 24.71875 -52.328125 C 25.457031 -53.210938 25.828125 -54.171875 25.828125 -55.203125 L 25.828125 -93.609375 C 25.828125 -95.960938 26.671875 -97.945312 28.359375 -99.5625 C 30.054688 -101.1875 32.082031 -102 34.4375 -102 L 38.859375 -102 C 40.035156 -102 40.988281 -102.441406 41.71875 -103.328125 C 42.457031 -104.210938 42.828125 -105.171875 42.828125 -106.203125 L 42.828125 -144.609375 C 42.828125 -146.960938 43.671875 -148.945312 45.359375 -150.5625 C 47.054688 -152.1875 49.082031 -153 51.4375 -153 L 55.859375 -153 C 58.503906 -153 59.828125 -154.398438 59.828125 -157.203125 L 59.828125 -161.609375 C 59.828125 -163.960938 60.632812 -165.945312 62.25 -167.5625 C 63.875 -169.1875 65.863281 -170 68.21875 -170 L 85.21875 -170 C 87.71875 -170 89.773438 -169.1875 91.390625 -167.5625 C 93.015625 -165.945312 93.828125 -163.960938 93.828125 -161.609375 L 93.828125 -140.203125 C 93.828125 -137.398438 95.15625 -136 97.8125 -136 L 102.21875 -136 C 104.71875 -136 106.773438 -135.1875 108.390625 -133.5625 C 110.015625 -131.945312 110.828125 -129.960938 110.828125 -127.609375 L 110.828125 -89.203125 C 110.828125 -88.171875 111.234375 -87.210938 112.046875 -86.328125 C 112.859375 -85.441406 113.78125 -85 114.8125 -85 L 119.21875 -85 C 121.71875 -85 123.773438 -84.1875 125.390625 -82.5625 C 127.015625 -80.945312 127.828125 -78.960938 127.828125 -76.609375 L 127.828125 -38.1875 C 127.828125 -37.164062 128.234375 -36.210938 129.046875 -35.328125 C 129.859375 -34.441406 130.78125 -34 131.8125 -34 Z M 107.078125 -68 C 108.109375 -68 108.988281 -68.363281 109.71875 -69.09375 C 110.457031 -69.832031 110.828125 -70.71875 110.828125 -71.75 L 110.828125 -81.03125 C 110.828125 -83.675781 109.429688 -85 106.640625 -85 L 102.21875 -85 C 99.863281 -85 97.875 -85.84375 96.25 -87.53125 C 94.632812 -89.226562 93.828125 -91.253906 93.828125 -93.609375 L 93.828125 -132.03125 C 93.828125 -133.207031 93.457031 -134.160156 92.71875 -134.890625 C 91.988281 -135.628906 91.035156 -136 89.859375 -136 L 85.21875 -136 C 82.863281 -136 80.875 -136.84375 79.25 -138.53125 C 77.632812 -140.226562 76.828125 -142.253906 76.828125 -144.609375 L 76.828125 -149.25 C 76.828125 -150.425781 76.457031 -151.34375 75.71875 -152 C 74.988281 -152.664062 74.109375 -153 73.078125 -153 L 63.8125 -153 C 62.78125 -153 61.859375 -152.628906 61.046875 -151.890625 C 60.234375 -151.160156 59.828125 -150.207031 59.828125 -149.03125 L 59.828125 -110.609375 C 59.828125 -108.253906 59.015625 -106.226562 57.390625 -104.53125 C 55.773438 -102.84375 53.789062 -102 51.4375 -102 L 46.8125 -102 C 45.78125 -102 44.859375 -101.628906 44.046875 -100.890625 C 43.234375 -100.160156 42.828125 -99.207031 42.828125 -98.03125 L 42.828125 -71.75 C 42.828125 -70.71875 43.195312 -69.832031 43.9375 -69.09375 C 44.675781 -68.363281 45.554688 -68 46.578125 -68 Z M 107.078125 -68 "/></g></g></g></g></g><g transform="matrix(1, 0, 0, 1, 203, 111)"><g clip-path="url(#e4ff6d0330)"><g fill="#ffffff" fill-opacity="1"><g transform="translate(0.677931, 155.941117)"><g><path d="M 24.40625 0 C 22.664062 0 21.195312 -0.59375 20 -1.78125 C 18.8125 -2.976562 18.21875 -4.445312 18.21875 -6.1875 L 18.21875 -9.4375 C 18.21875 -11.5 17.1875 -12.53125 15.125 -12.53125 L 11.875 -12.53125 C 10.132812 -12.53125 8.664062 -13.125 7.46875 -14.3125 C 6.28125 -15.507812 5.6875 -16.972656 5.6875 -18.703125 L 5.6875 -31.234375 C 5.6875 -32.972656 6.28125 -34.460938 7.46875 -35.703125 C 8.664062 -36.953125 10.132812 -37.578125 11.875 -37.578125 L 15.125 -37.578125 C 17.1875 -37.578125 18.21875 -38.554688 18.21875 -40.515625 L 18.21875 -43.765625 C 18.21875 -45.492188 18.8125 -46.953125 20 -48.140625 C 21.195312 -49.335938 22.664062 -49.9375 24.40625 -49.9375 L 74.515625 -49.9375 C 76.242188 -49.9375 77.703125 -49.335938 78.890625 -48.140625 C 80.085938 -46.953125 80.6875 -45.492188 80.6875 -43.765625 L 80.6875 -72.078125 C 80.6875 -72.941406 80.414062 -73.644531 79.875 -74.1875 C 79.332031 -74.726562 78.628906 -75 77.765625 -75 L 21.15625 -75 C 20.394531 -75 19.710938 -74.726562 19.109375 -74.1875 C 18.515625 -73.644531 18.21875 -72.941406 18.21875 -72.078125 L 18.21875 -68.8125 C 18.21875 -67.082031 17.617188 -65.59375 16.421875 -64.34375 C 15.234375 -63.09375 13.71875 -62.46875 11.875 -62.46875 L 8.453125 -62.46875 C 7.703125 -62.46875 7.050781 -62.738281 6.5 -63.28125 C 5.957031 -63.820312 5.6875 -64.472656 5.6875 -65.234375 L 5.6875 -68.8125 C 5.6875 -70.550781 6.28125 -72.015625 7.46875 -73.203125 C 8.664062 -74.398438 10.132812 -75 11.875 -75 L 15.125 -75 C 17.1875 -75 18.21875 -75.972656 18.21875 -77.921875 L 18.21875 -81.1875 C 18.21875 -83.03125 18.8125 -84.546875 20 -85.734375 C 21.195312 -86.929688 22.664062 -87.53125 24.40625 -87.53125 L 74.515625 -87.53125 C 76.242188 -87.53125 77.703125 -86.929688 78.890625 -85.734375 C 80.085938 -84.546875 80.6875 -83.03125 80.6875 -81.1875 L 80.6875 -77.921875 C 80.6875 -77.160156 80.984375 -76.484375 81.578125 -75.890625 C 82.179688 -75.296875 82.863281 -75 83.625 -75 L 86.875 -75 C 88.71875 -75 90.234375 -74.398438 91.421875 -73.203125 C 92.617188 -72.015625 93.21875 -70.550781 93.21875 -68.8125 L 93.21875 -31.234375 C 93.21875 -29.503906 92.617188 -28.039062 91.421875 -26.84375 C 90.234375 -25.644531 88.71875 -25.046875 86.875 -25.046875 L 83.625 -25.046875 C 82.863281 -25.046875 82.179688 -24.75 81.578125 -24.15625 C 80.984375 -23.5625 80.6875 -22.832031 80.6875 -21.96875 L 80.6875 -6.1875 C 80.6875 -4.445312 80.085938 -2.976562 78.890625 -1.78125 C 77.703125 -0.59375 76.242188 0 74.515625 0 Z M 21.15625 -12.53125 L 65.40625 -12.53125 C 67.25 -12.53125 68.171875 -13.453125 68.171875 -15.296875 L 68.171875 -18.703125 C 68.171875 -20.441406 68.789062 -21.929688 70.03125 -23.171875 C 71.28125 -24.421875 72.773438 -25.046875 74.515625 -25.046875 L 77.765625 -25.046875 C 78.628906 -25.046875 79.332031 -25.34375 79.875 -25.9375 C 80.414062 -26.539062 80.6875 -27.222656 80.6875 -27.984375 L 80.6875 -34.8125 C 80.6875 -35.570312 80.441406 -36.222656 79.953125 -36.765625 C 79.472656 -37.304688 78.796875 -37.578125 77.921875 -37.578125 L 21.15625 -37.578125 C 20.394531 -37.578125 19.710938 -37.28125 19.109375 -36.6875 C 18.515625 -36.09375 18.21875 -35.359375 18.21875 -34.484375 L 18.21875 -15.453125 C 18.21875 -14.691406 18.515625 -14.015625 19.109375 -13.421875 C 19.710938 -12.828125 20.394531 -12.53125 21.15625 -12.53125 Z M 21.15625 -12.53125 "/></g></g></g></g></g><g transform="matrix(1, 0, 0, 1, 302, 143)"><g clip-path="url(#5e3d0c4a5f)"><g fill="#ffffff" fill-opacity="1"><g transform="translate(0.60767, 40.391106)"><g><path d="M 6.6875 -14.9375 C 5.90625 -14.9375 5.140625 -15 4.390625 -15.125 C 3.648438 -15.25 3.039062 -15.421875 2.5625 -15.640625 L 2.5625 -17.875 C 3.09375 -17.675781 3.742188 -17.476562 4.515625 -17.28125 C 5.285156 -17.09375 6.078125 -17 6.890625 -17 C 7.984375 -17 8.8125 -17.1875 9.375 -17.5625 C 9.9375 -17.9375 10.21875 -18.445312 10.21875 -19.09375 C 10.21875 -19.789062 9.9375 -20.320312 9.375 -20.6875 C 8.8125 -21.050781 7.972656 -21.429688 6.859375 -21.828125 C 6.179688 -22.078125 5.5 -22.363281 4.8125 -22.6875 C 4.125 -23.007812 3.539062 -23.457031 3.0625 -24.03125 C 2.59375 -24.613281 2.359375 -25.394531 2.359375 -26.375 C 2.359375 -27.71875 2.851562 -28.722656 3.84375 -29.390625 C 4.84375 -30.066406 6.171875 -30.40625 7.828125 -30.40625 C 8.660156 -30.40625 9.4375 -30.328125 10.15625 -30.171875 C 10.875 -30.023438 11.523438 -29.820312 12.109375 -29.5625 L 11.484375 -27.515625 C 10.953125 -27.765625 10.367188 -27.976562 9.734375 -28.15625 C 9.109375 -28.34375 8.441406 -28.4375 7.734375 -28.4375 C 5.804688 -28.4375 4.84375 -27.734375 4.84375 -26.328125 C 4.84375 -25.597656 5.128906 -25.070312 5.703125 -24.75 C 6.273438 -24.425781 7.125 -24.070312 8.25 -23.6875 C 9.707031 -23.175781 10.820312 -22.617188 11.59375 -22.015625 C 12.363281 -21.410156 12.75 -20.492188 12.75 -19.265625 C 12.75 -17.835938 12.207031 -16.757812 11.125 -16.03125 C 10.039062 -15.300781 8.5625 -14.9375 6.6875 -14.9375 Z M 15.234375 -15.234375 L 15.234375 -30.03125 L 19.1875 -30.03125 L 23.140625 -18.640625 L 27.21875 -30.03125 L 31.046875 -30.03125 L 31.046875 -15.234375 L 28.34375 -15.234375 L 28.34375 -23.8125 C 28.34375 -24.03125 28.359375 -24.46875 28.390625 -25.125 C 28.421875 -25.789062 28.445312 -26.289062 28.46875 -26.625 L 28.3125 -26.625 L 24.0625 -15.234375 L 21.828125 -15.234375 L 17.796875 -26.625 L 17.625 -26.625 C 17.65625 -26.175781 17.679688 -25.671875 17.703125 -25.109375 C 17.734375 -24.546875 17.75 -24.179688 17.75 -24.015625 L 17.75 -15.234375 Z M 15.234375 -15.234375 "/></g></g></g></g></g></svg>